<svg width="1024" height="1024" viewBox="0 0 1024 1024" fill="none" xmlns="http://www.w3.org/2000/svg">
  <rect width="1024" height="1024" rx="232" fill="#F7F1DF"/>
  <rect x="132" y="132" width="760" height="760" rx="188" fill="#0E5A74"/>
  <circle cx="512" cy="512" r="238" fill="#F9C74F"/>
  <path d="M514.213 306C588.751 306 648.667 366.575 648.667 441.225C648.667 538.285 561.092 606.936 521.676 708.501C518.894 715.732 508.672 715.732 505.89 708.501C466.474 606.936 378.667 538.285 378.667 441.225C378.667 366.575 439.674 306 514.213 306Z" fill="#FFF8E8"/>
  <path d="M515.52 358C560.686 358 598 394.826 598 440.364C598 495.503 550.52 537.639 519.748 599.146C518.12 602.416 513.29 602.416 511.662 599.146C480.89 537.639 432 495.503 432 440.364C432 394.826 470.354 358 515.52 358Z" fill="#0E5A74"/>
  <circle cx="470" cy="437" r="22" fill="#FFF8E8"/>
  <circle cx="562" cy="437" r="22" fill="#FFF8E8"/>
  <path d="M458 516C481.837 546.797 545.328 551.027 570 516" stroke="#FFF8E8" stroke-width="28" stroke-linecap="round"/>
  <path d="M293 321L346.893 335.963L362 390L377.107 335.963L431 321L377.107 306.037L362 252L346.893 306.037L293 321Z" fill="#F9C74F"/>
  <path d="M646 242L678.026 250.594L687 283L695.974 250.594L728 242L695.974 233.406L687 201L678.026 233.406L646 242Z" fill="#F9C74F"/>
  <path d="M693 678L738.661 690.185L751 736L763.339 690.185L809 678L763.339 665.815L751 620L738.661 665.815L693 678Z" fill="#F9C74F"/>
</svg>
